<?xml version="1.0" encoding="UTF-8" standalone="no"?>
<!DOCTYPE svg PUBLIC "-//W3C//DTD SVG 1.1//EN"
 "http://www.w3.org/Graphics/SVG/1.1/DTD/svg11.dtd">
<!-- Generated by graphviz version 2.43.0 (0)
 -->
<!-- Title: CFG for &#39;main&#39; function Pages: 1 -->
<svg width="670pt" height="492pt"
 viewBox="0.00 0.00 670.00 492.00" xmlns="http://www.w3.org/2000/svg" xmlns:xlink="http://www.w3.org/1999/xlink">
<g id="graph0" class="graph" transform="scale(1 1) rotate(0) translate(4 488)">
<title>CFG for &#39;main&#39; function</title>
<polygon fill="white" stroke="transparent" points="-4,4 -4,-488 666,-488 666,4 -4,4"/>
<text text-anchor="middle" x="331" y="-7.8" font-family="Times,serif" font-size="14.00">CFG for &#39;main&#39; function</text>
<!-- Node0x5b027d79b4f0 -->
<g id="node1" class="node">
<title>Node0x5b027d79b4f0</title>
<polygon fill="#d65244" fill-opacity="0.439216" stroke="#3d50c3" points="75.5,-302.5 75.5,-483.5 512.5,-483.5 512.5,-302.5 75.5,-302.5"/>
<text text-anchor="start" x="83.5" y="-468.3" font-family="Courier,monospace" font-size="14.00">entry:</text>
<polyline fill="none" stroke="#3d50c3" points="75.5,-460.5 512.5,-460.5 "/>
<text text-anchor="start" x="83.5" y="-445.3" font-family="Courier,monospace" font-size="14.00">%retval = alloca i32, align 4</text>
<text text-anchor="start" x="83.5" y="-430.3" font-family="Courier,monospace" font-size="14.00"> %r = alloca i32, align 4</text>
<text text-anchor="start" x="83.5" y="-415.3" font-family="Courier,monospace" font-size="14.00"> %p = alloca ptr, align 8</text>
<text text-anchor="start" x="83.5" y="-400.3" font-family="Courier,monospace" font-size="14.00"> store i32 0, ptr %retval, align 4</text>
<text text-anchor="start" x="83.5" y="-385.3" font-family="Courier,monospace" font-size="14.00"> store i32 0, ptr %r, align 4</text>
<text text-anchor="start" x="83.5" y="-370.3" font-family="Courier,monospace" font-size="14.00"> %call = call noalias ptr @malloc(i64 noundef 4) #2</text>
<text text-anchor="start" x="83.5" y="-355.3" font-family="Courier,monospace" font-size="14.00"> store ptr %call, ptr %p, align 8</text>
<text text-anchor="start" x="83.5" y="-340.3" font-family="Courier,monospace" font-size="14.00"> %0 = load ptr, ptr %p, align 8</text>
<text text-anchor="start" x="83.5" y="-325.3" font-family="Courier,monospace" font-size="14.00"> call void @init(ptr noundef %0)</text>
<text text-anchor="start" x="83.5" y="-310.3" font-family="Courier,monospace" font-size="14.00"> br label %while.cond</text>
</g>
<!-- Node0x5b027d79c1d0 -->
<g id="node2" class="node">
<title>Node0x5b027d79c1d0</title>
<polygon fill="#b70d28" fill-opacity="0.439216" stroke="#b70d28" points="87.5,-151.5 87.5,-265.5 500.5,-265.5 500.5,-151.5 87.5,-151.5"/>
<text text-anchor="start" x="95.5" y="-250.3" font-family="Courier,monospace" font-size="14.00">while.cond:</text>
<polyline fill="none" stroke="#b70d28" points="87.5,-242.5 500.5,-242.5 "/>
<text text-anchor="start" x="95.5" y="-227.3" font-family="Courier,monospace" font-size="14.00">%1 = load ptr, ptr %p, align 8</text>
<text text-anchor="start" x="95.5" y="-212.3" font-family="Courier,monospace" font-size="14.00"> %2 = load i32, ptr %1, align 4</text>
<text text-anchor="start" x="95.5" y="-197.3" font-family="Courier,monospace" font-size="14.00"> %cmp = icmp slt i32 %2, 100</text>
<text text-anchor="start" x="95.5" y="-182.3" font-family="Courier,monospace" font-size="14.00"> br i1 %cmp, label %while.body, label %while.end</text>
<polyline fill="none" stroke="#b70d28" points="87.5,-174.5 500.5,-174.5 "/>
<text text-anchor="middle" x="190.5" y="-159.3" font-family="Courier,monospace" font-size="14.00">T</text>
<polyline fill="none" stroke="#b70d28" points="293.5,-151.5 293.5,-174.5 "/>
<text text-anchor="middle" x="397" y="-159.3" font-family="Courier,monospace" font-size="14.00">F</text>
</g>
<!-- Node0x5b027d79b4f0&#45;&gt;Node0x5b027d79c1d0 -->
<g id="edge1" class="edge">
<title>Node0x5b027d79b4f0&#45;&gt;Node0x5b027d79c1d0</title>
<g id="a_edge1"><a xlink:title="entry &#45;&gt; while.cond&#10;Probability 100.00%">
<path fill="none" stroke="black" d="M294,-302.35C294,-293.35 294,-284.32 294,-275.62"/>
<polygon fill="black" stroke="black" points="297.5,-275.59 294,-265.59 290.5,-275.59 297.5,-275.59"/>
</a>
</g>
</g>
<!-- Node0x5b027d79c3f0 -->
<g id="node3" class="node">
<title>Node0x5b027d79c3f0</title>
<polygon fill="#b70d28" fill-opacity="0.439216" stroke="#b70d28" points="0,-23.5 0,-114.5 380,-114.5 380,-23.5 0,-23.5"/>
<text text-anchor="start" x="8" y="-99.3" font-family="Courier,monospace" font-size="14.00">while.body:</text>
<polyline fill="none" stroke="#b70d28" points="0,-91.5 380,-91.5 "/>
<text text-anchor="start" x="8" y="-76.3" font-family="Courier,monospace" font-size="14.00">%3 = load ptr, ptr %p, align 8</text>
<text text-anchor="start" x="8" y="-61.3" font-family="Courier,monospace" font-size="14.00"> %call1 = call i32 @double_1(ptr noundef %3)</text>
<text text-anchor="start" x="8" y="-46.3" font-family="Courier,monospace" font-size="14.00"> store i32 %call1, ptr %r, align 4</text>
<text text-anchor="start" x="8" y="-31.3" font-family="Courier,monospace" font-size="14.00"> br label %while.cond, !llvm.loop !6</text>
</g>
<!-- Node0x5b027d79c1d0&#45;&gt;Node0x5b027d79c3f0 -->
<g id="edge2" class="edge">
<title>Node0x5b027d79c1d0:s0&#45;&gt;Node0x5b027d79c3f0</title>
<g id="a_edge2"><a xlink:title="while.cond &#45;&gt; while.body&#10;Probability 96.88%">
<path fill="none" stroke="black" d="M190,-151C187.88,-142.51 186.26,-133.52 185.13,-124.74"/>
<polygon fill="black" stroke="black" points="188.59,-124.13 184.05,-114.56 181.63,-124.88 188.59,-124.13"/>
</a>
</g>
</g>
<!-- Node0x5b027d79c470 -->
<g id="node4" class="node">
<title>Node0x5b027d79c470</title>
<polygon fill="#d65244" fill-opacity="0.439216" stroke="#3d50c3" points="398,-38.5 398,-99.5 662,-99.5 662,-38.5 398,-38.5"/>
<text text-anchor="start" x="406" y="-84.3" font-family="Courier,monospace" font-size="14.00">while.end:</text>
<polyline fill="none" stroke="#3d50c3" points="398,-76.5 662,-76.5 "/>
<text text-anchor="start" x="406" y="-61.3" font-family="Courier,monospace" font-size="14.00">%4 = load i32, ptr %r, align 4</text>
<text text-anchor="start" x="406" y="-46.3" font-family="Courier,monospace" font-size="14.00"> ret i32 %4</text>
</g>
<!-- Node0x5b027d79c1d0&#45;&gt;Node0x5b027d79c470 -->
<g id="edge3" class="edge">
<title>Node0x5b027d79c1d0:s1&#45;&gt;Node0x5b027d79c470</title>
<g id="a_edge3"><a xlink:title="while.cond &#45;&gt; while.end&#10;Probability 3.12%">
<path fill="none" stroke="black" d="M502,-162.5C525.52,-162.5 531.68,-134.76 532.44,-109.67"/>
<polygon fill="black" stroke="black" points="535.94,-109.53 532.47,-99.52 528.94,-109.51 535.94,-109.53"/>
</a>
</g>
</g>
<!-- Node0x5b027d79c3f0&#45;&gt;Node0x5b027d79c1d0 -->
<g id="edge4" class="edge">
<title>Node0x5b027d79c3f0&#45;&gt;Node0x5b027d79c1d0</title>
<g id="a_edge4"><a xlink:title="while.body &#45;&gt; while.cond&#10;Probability 100.00%">
<path fill="none" stroke="black" d="M195.94,-114.7C195.22,-123.08 194.01,-131.93 192.32,-140.57"/>
<polygon fill="black" stroke="black" points="188.84,-140.06 190.11,-150.58 195.68,-141.57 188.84,-140.06"/>
</a>
</g>
</g>
</g>
</svg>
