<?xml version="1.0" encoding="UTF-8"?>
<svg xmlns="http://www.w3.org/2000/svg" xmlns:xlink="http://www.w3.org/1999/xlink" width="1920" height="1080" viewBox="0 0 1920 1080">
<defs>
<g>
<g id="glyph-0-0">
<path d="M 2.90625 -1.625 C 2.90625 -1.851562 2.851562 -2.03125 2.75 -2.15625 C 2.644531 -2.28125 2.503906 -2.34375 2.328125 -2.34375 C 2.148438 -2.34375 2.007812 -2.28125 1.90625 -2.15625 C 1.8125 -2.03125 1.765625 -1.851562 1.765625 -1.625 C 1.765625 -1.394531 1.8125 -1.21875 1.90625 -1.09375 C 2.007812 -0.96875 2.148438 -0.90625 2.328125 -0.90625 C 2.503906 -0.90625 2.644531 -0.96875 2.75 -1.09375 C 2.851562 -1.21875 2.90625 -1.394531 2.90625 -1.625 Z M 3.453125 -0.40625 L 2.875 -0.40625 L 2.875 -0.640625 C 2.800781 -0.535156 2.710938 -0.457031 2.609375 -0.40625 C 2.503906 -0.363281 2.378906 -0.34375 2.234375 -0.34375 C 1.910156 -0.34375 1.648438 -0.457031 1.453125 -0.6875 C 1.253906 -0.925781 1.15625 -1.238281 1.15625 -1.625 C 1.15625 -2.007812 1.253906 -2.316406 1.453125 -2.546875 C 1.648438 -2.785156 1.910156 -2.90625 2.234375 -2.90625 C 2.378906 -2.90625 2.503906 -2.878906 2.609375 -2.828125 C 2.710938 -2.773438 2.800781 -2.703125 2.875 -2.609375 L 2.875 -2.734375 C 2.875 -3.003906 2.796875 -3.210938 2.640625 -3.359375 C 2.492188 -3.503906 2.285156 -3.578125 2.015625 -3.578125 C 1.597656 -3.578125 1.257812 -3.394531 1 -3.03125 C 0.738281 -2.675781 0.609375 -2.207031 0.609375 -1.625 C 0.609375 -1.007812 0.757812 -0.519531 1.0625 -0.15625 C 1.363281 0.195312 1.765625 0.375 2.265625 0.375 C 2.429688 0.375 2.585938 0.347656 2.734375 0.296875 C 2.878906 0.253906 3.023438 0.1875 3.171875 0.09375 L 3.4375 0.625 C 3.28125 0.726562 3.101562 0.804688 2.90625 0.859375 C 2.71875 0.921875 2.515625 0.953125 2.296875 0.953125 C 1.609375 0.953125 1.054688 0.71875 0.640625 0.25 C 0.222656 -0.207031 0.015625 -0.832031 0.015625 -1.625 C 0.015625 -2.394531 0.203125 -3.007812 0.578125 -3.46875 C 0.953125 -3.925781 1.441406 -4.15625 2.046875 -4.15625 C 2.484375 -4.15625 2.828125 -4.023438 3.078125 -3.765625 C 3.328125 -3.503906 3.453125 -3.148438 3.453125 -2.703125 Z "/>
</g>
<g id="glyph-0-1">
<path d="M 2.0625 -3 C 2.125 -3.144531 2.207031 -3.25 2.3125 -3.3125 C 2.414062 -3.382812 2.539062 -3.421875 2.6875 -3.421875 C 2.96875 -3.421875 3.164062 -3.320312 3.28125 -3.125 C 3.394531 -2.925781 3.453125 -2.507812 3.453125 -1.875 L 3.453125 0 L 2.734375 0 L 2.734375 -2.140625 C 2.734375 -2.390625 2.710938 -2.554688 2.671875 -2.640625 C 2.628906 -2.722656 2.5625 -2.765625 2.46875 -2.765625 C 2.363281 -2.765625 2.289062 -2.722656 2.25 -2.640625 C 2.21875 -2.554688 2.203125 -2.390625 2.203125 -2.140625 L 2.203125 0 L 1.484375 0 L 1.484375 -2.140625 C 1.484375 -2.390625 1.460938 -2.554688 1.421875 -2.640625 C 1.390625 -2.722656 1.320312 -2.765625 1.21875 -2.765625 C 1.125 -2.765625 1.054688 -2.722656 1.015625 -2.640625 C 0.972656 -2.554688 0.953125 -2.390625 0.953125 -2.140625 L 0.953125 0 L 0.25 0 L 0.25 -3.34375 L 0.875 -3.34375 L 0.875 -3 C 0.925781 -3.125 1.003906 -3.222656 1.109375 -3.296875 C 1.222656 -3.378906 1.347656 -3.421875 1.484375 -3.421875 C 1.617188 -3.421875 1.738281 -3.378906 1.84375 -3.296875 C 1.957031 -3.222656 2.03125 -3.125 2.0625 -3 Z "/>
</g>
<g id="glyph-0-2">
<path d="M 2.09375 -1.5625 C 1.757812 -1.5625 1.53125 -1.519531 1.40625 -1.4375 C 1.28125 -1.351562 1.21875 -1.210938 1.21875 -1.015625 C 1.21875 -0.859375 1.257812 -0.734375 1.34375 -0.640625 C 1.4375 -0.554688 1.554688 -0.515625 1.703125 -0.515625 C 1.941406 -0.515625 2.125 -0.601562 2.25 -0.78125 C 2.375 -0.957031 2.4375 -1.203125 2.4375 -1.515625 L 2.4375 -1.5625 Z M 3.3125 -1.90625 L 3.3125 0 L 2.4375 0 L 2.4375 -0.375 C 2.332031 -0.226562 2.195312 -0.113281 2.03125 -0.03125 C 1.863281 0.0507812 1.679688 0.09375 1.484375 0.09375 C 1.109375 0.09375 0.8125 -0.00390625 0.59375 -0.203125 C 0.382812 -0.410156 0.28125 -0.695312 0.28125 -1.0625 C 0.28125 -1.445312 0.40625 -1.734375 0.65625 -1.921875 C 0.90625 -2.109375 1.296875 -2.203125 1.828125 -2.203125 L 2.4375 -2.203125 L 2.4375 -2.34375 C 2.4375 -2.488281 2.382812 -2.597656 2.28125 -2.671875 C 2.175781 -2.742188 2.023438 -2.78125 1.828125 -2.78125 C 1.617188 -2.78125 1.414062 -2.75 1.21875 -2.6875 C 1.03125 -2.632812 0.828125 -2.550781 0.609375 -2.4375 L 0.609375 -3.1875 C 0.804688 -3.269531 1.003906 -3.328125 1.203125 -3.359375 C 1.398438 -3.398438 1.609375 -3.421875 1.828125 -3.421875 C 2.367188 -3.421875 2.75 -3.3125 2.96875 -3.09375 C 3.195312 -2.875 3.3125 -2.476562 3.3125 -1.90625 Z "/>
</g>
<g id="glyph-0-3">
<path d="M 0.65625 -3.34375 L 2.390625 -3.34375 L 2.390625 -0.671875 L 3.46875 -0.671875 L 3.46875 0 L 0.421875 0 L 0.421875 -0.671875 L 1.515625 -0.671875 L 1.515625 -2.671875 L 0.65625 -2.671875 Z M 1.515625 -4.96875 L 2.390625 -4.96875 L 2.390625 -3.953125 L 1.515625 -3.953125 Z "/>
</g>
<g id="glyph-0-4">
<path d="M 3.1875 -2.171875 L 3.1875 0 L 2.328125 0 L 2.328125 -2.03125 C 2.328125 -2.269531 2.289062 -2.441406 2.21875 -2.546875 C 2.15625 -2.660156 2.046875 -2.71875 1.890625 -2.71875 C 1.734375 -2.71875 1.609375 -2.644531 1.515625 -2.5 C 1.421875 -2.351562 1.375 -2.15625 1.375 -1.90625 L 1.375 0 L 0.515625 0 L 0.515625 -3.34375 L 1.375 -3.34375 L 1.375 -2.84375 C 1.4375 -3.03125 1.539062 -3.171875 1.6875 -3.265625 C 1.84375 -3.367188 2.023438 -3.421875 2.234375 -3.421875 C 2.554688 -3.421875 2.796875 -3.316406 2.953125 -3.109375 C 3.109375 -2.898438 3.1875 -2.585938 3.1875 -2.171875 Z "/>
</g>
</g>
</defs>
<g fill="rgb(100%, 100%, 100%)" fill-opacity="1">
<use xlink:href="#glyph-0-0" x="30" y="25.671875"/>
<use xlink:href="#glyph-0-1" x="34" y="25.671875"/>
<use xlink:href="#glyph-0-2" x="38" y="25.671875"/>
<use xlink:href="#glyph-0-3" x="42" y="25.671875"/>
<use xlink:href="#glyph-0-4" x="46" y="25.671875"/>
</g>
</svg>
